<svg xmlns="http://www.w3.org/2000/svg" xmlns:xlink="http://www.w3.org/1999/xlink" aria-hidden="true" role="img" class="iconify iconify--logos" width="31.88" height="32" preserveAspectRatio="xMidYMid meet" viewBox="0 0 512 512">
<g><path d="m135.904 40.066-6.777 2.195c-16.955 5.493-28.439 21.285-28.439 39.108v109.768l87.301-61.162-33.53-81.327c-2.996-7.266-11.078-11.004-18.555-8.582z" style="" fill="#bd80e1" data-original="#bd80e1"></path><path d="m14.504 163.127 151.824-64.689c11.912-5.075 25.568 1.491 29.043 13.964l26.355 94.619a28.696 28.696 0 0 0 12.392 16.608l166.167 104.272a21.296 21.296 0 0 0 8.352 3.05l25.159 3.545c40.55 5.714 70.703 40.414 70.703 81.365v36.193c0 11.383-9.228 20.611-20.611 20.611H28.111c-11.383 0-20.611-9.228-20.611-20.611V173.725a11.52 11.52 0 0 1 7.004-10.598z" style="" fill="#8ac9fe" data-original="#8ac9fe" class="hovered-path"></path><path d="m433.797 334.498-25.159-3.545a21.324 21.324 0 0 1-8.352-3.05L234.118 223.63a28.7 28.7 0 0 1-12.392-16.608l-26.355-94.619c-3.474-12.473-17.131-19.039-29.043-13.964l-18.183 7.747c7.51 1.594 13.986 7.174 16.226 15.217l27.355 95.619a28.696 28.696 0 0 0 12.392 16.608l166.167 104.272a21.296 21.296 0 0 0 8.352 3.05l25.159 3.545c40.55 5.714 70.703 40.414 70.703 81.364v35.193c0 4.308-1.325 8.304-3.585 11.611h12.974c11.383 0 20.611-9.228 20.611-20.611v-36.193c.001-40.95-30.152-75.649-70.702-81.363z" style="" fill="#60b7ff" data-original="#60b7ff"></path><path d="M182.572 247.718a28.696 28.696 0 0 0 12.392 16.608l166.167 104.272 53.423-36.812-5.917-.834a21.324 21.324 0 0 1-8.352-3.05L234.118 223.63a28.696 28.696 0 0 1-12.392-16.608l-11.431-41.039-46.243 15.246 18.52 66.489z" style="" fill="#fe7ab6" data-original="#fe7ab6"></path><path d="M408.637 330.952a21.324 21.324 0 0 1-8.352-3.05L234.118 223.63a28.7 28.7 0 0 1-12.392-16.608l-11.431-41.039-30.312 9.993 11.743 41.046a28.696 28.696 0 0 0 12.392 16.608l166.167 104.272a21.296 21.296 0 0 0 8.352 3.05l18.775 2.646 17.142-11.812-5.917-.834z" style="" fill="#fe4fb7" data-original="#fe4fb7"></path><path d="M158.19 282.661a28.696 28.696 0 0 1-12.392-16.608l-18.52-66.49-92.133 70.656v66.289H176.61c10.71 0 19.393-8.683 19.393-19.393a19.395 19.395 0 0 0-9.085-16.427l-28.728-18.027z" style="" fill="#7a8c98" data-original="#7a8c98"></path><path d="M7.5 392.671h50.586v-72.149a66.306 66.306 0 0 1 37.539-59.741l124.391-59.9-19.058-68.422-139.599 67.223a26.688 26.688 0 0 0-12.515 12.568l-4.995 10.486a26.686 26.686 0 0 1-24.093 15.21H7.5v154.725z" style="" fill="#fed402" data-original="#fed402"></path><path d="m191.093 214.809 28.923-13.927-19.058-68.422-29.377 14.146z" style="" fill="#fdb441" data-original="#fdb441"></path><path d="m7.5 446.49 127.516-8.568-45.591-57.7a29.724 29.724 0 0 0-23.322-11.296H7.5v77.564zM483.889 472.667c11.383 0 20.611-9.228 20.611-20.611v-36.193c0-40.951-30.153-75.651-70.703-81.365l-25.159-3.545c-.165-.023-82.273 43.688-82.273 90.885v12.588l157.524 38.241z" style="" fill="#7a8c98" data-original="#7a8c98"></path><path d="M504.5 452.055v-36.193c0-40.951-30.153-75.651-70.703-81.365l-25.159-3.545c-.052-.007-8.085 4.246-19.112 11.534l14.271 2.011c40.55 5.714 70.703 40.414 70.703 81.364v35.193c0 3.168-.722 6.166-2 8.846l11.389 2.765c11.383.002 20.611-9.226 20.611-20.61z" style="" fill="#596c76" data-original="#596c76"></path><path d="M7.5 424.3v27.756c0 11.383 9.228 20.611 20.611 20.611h455.777c11.383 0 20.611-9.228 20.611-20.611V424.3H7.5z" style="" fill="#fff2e2" data-original="#fff2e2"></path><path d="M504.5 424.3h-30.036c.01.521.036 1.039.036 1.562v35.193c0 .9-1.596 5.26-4.135 11.611h13.524c11.383 0 20.611-9.228 20.611-20.611V424.3z" style="" fill="#fedbbd" data-original="#fedbbd"></path><path d="m174.28 96.719-19.82-48.07c-3-7.27-11.08-11-18.56-8.58l-6.77 2.19c-16.96 5.5-28.44 21.29-28.44 39.11v45.04M175.49 222.319l7.08 25.4a28.717 28.717 0 0 0 12.39 16.61l163.2 102.4M138.57 240.099l7.23 25.95a28.717 28.717 0 0 0 12.39 16.61l28.73 18.03c5.65 3.55 9.08 9.75 9.08 16.43 0 10.71-8.68 19.39-19.39 19.39H58.09M200.958 132.46 61.359 199.682a26.688 26.688 0 0 0-12.515 12.568l-4.995 10.486a26.686 26.686 0 0 1-24.093 15.21H7.5" style="stroke-width:15;stroke-linecap:round;stroke-linejoin:round;stroke-miterlimit:10;" fill="none" stroke="#000000" stroke-width="15" stroke-linecap="round" stroke-linejoin="round" stroke-miterlimit="10" data-original="#000000"></path><path d="M58.09 368.929v-48.41c0-25.47 14.59-48.69 37.53-59.74l124.4-59.9M7.5 368.929h58.6c9.1 0 17.69 4.16 23.33 11.29l34.83 44.08M175.697 182.734l-2.093.952M357.179 300.854l-12.084 15.941M320.362 277.744l-11.939 15.762M283.556 254.644l-11.794 15.574M246.74 231.556l-11.65 15.374M326.36 424.299v-2.46c0-47.2 82.109-90.908 82.279-90.888M504.5 424.3H7.5M164.052 390.476l-8.036-8.036M204.038 390.476l-8.036-8.036M244.024 390.476l-8.035-8.036" style="stroke-width:15;stroke-linecap:round;stroke-linejoin:round;stroke-miterlimit:10;" fill="none" stroke="#000000" stroke-width="15" stroke-linecap="round" stroke-linejoin="round" stroke-miterlimit="10" data-original="#000000"></path><path d="M381.49 472.667H28.111c-11.383 0-20.611-9.228-20.611-20.611V173.725a11.52 11.52 0 0 1 7.004-10.598l26.157-11.145M72.847 138.269l93.481-39.83c11.912-5.075 25.568 1.491 29.043 13.964l26.355 94.619a28.696 28.696 0 0 0 12.392 16.608l166.167 104.272a21.32 21.32 0 0 0 8.353 3.049l25.158 3.547c40.55 5.714 70.703 40.414 70.703 81.365v36.193c0 11.383-9.228 20.611-20.611 20.611H416.49" style="stroke-width:15;stroke-linecap:round;stroke-linejoin:round;stroke-miterlimit:10;" fill="none" stroke="#000000" stroke-width="15" stroke-linecap="round" stroke-linejoin="round" stroke-miterlimit="10" data-original="#000000"></path></g>
</svg>